<?xml version="1.0" standalone="no"?>
<!DOCTYPE svg PUBLIC "-//W3C//DTD SVG 20010904//EN"
 "http://www.w3.org/TR/2001/REC-SVG-20010904/DTD/svg10.dtd">
<svg version="1.0" xmlns="http://www.w3.org/2000/svg"
 width="353.000000pt" height="353.000000pt" viewBox="0 0 353.000000 353.000000"
 preserveAspectRatio="xMidYMid meet">
<metadata>
Created by potrace 1.14, written by Peter Selinger 2001-2017
</metadata>
<g transform="translate(0.000000,353.000000) scale(0.100000,-0.100000)"
fill="#000000" stroke="none">
<path d="M1740 3273 c-6 -32 -14 -65 -17 -73 -3 -8 -7 -22 -8 -30 -2 -8 -6
-26 -10 -40 -4 -14 -11 -43 -16 -65 -12 -51 -17 -70 -19 -70 -1 0 -3 -8 -5
-17 -15 -78 -41 -174 -48 -179 -5 -4 -6 -12 -2 -18 4 -7 1 -18 -5 -26 -7 -8
-10 -15 -8 -15 3 0 -4 -35 -14 -77 -11 -43 -21 -85 -22 -93 -2 -8 -6 -22 -9
-30 -4 -13 -29 -109 -42 -164 -12 -52 -31 -95 -58 -136 -37 -54 -28 -46 -158
-143 -57 -43 -113 -86 -124 -95 -11 -9 -42 -32 -70 -51 -27 -19 -56 -41 -63
-48 -7 -7 -15 -13 -18 -13 -6 0 -63 93 -63 103 0 4 -7 15 -16 23 -8 9 -15 22
-15 30 0 8 -5 14 -11 14 -5 0 -7 5 -4 10 3 6 -1 10 -11 10 -13 0 -15 -6 -10
-32 4 -18 8 -69 10 -114 1 -44 5 -85 8 -90 9 -14 -10 -56 -22 -49 -5 3 -10 2
-10 -2 0 -7 -17 -16 -65 -33 -5 -2 -32 -17 -60 -33 -27 -16 -57 -30 -65 -32
-8 -1 -16 -8 -18 -16 -2 -11 18 -14 108 -13 l111 2 -4 -62 c-3 -33 -6 -61 -7
-61 -1 0 -3 -16 -5 -35 -5 -54 -14 -142 -19 -170 -2 -14 -6 -45 -10 -70 -4
-25 -10 -58 -13 -75 -4 -16 -7 -32 -8 -35 0 -3 -10 -25 -21 -50 -23 -49 -72
-100 -380 -397 -109 -105 -246 -236 -303 -291 -59 -57 -100 -105 -97 -111 5
-8 13 -8 27 0 11 6 29 12 40 15 10 2 29 7 41 10 13 3 35 8 50 11 16 3 28 10
28 15 0 5 6 8 13 5 6 -2 36 4 65 14 28 10 52 16 52 13 0 -3 8 0 18 5 11 6 30
12 43 15 13 3 51 13 84 22 33 9 65 17 70 18 6 1 15 4 20 8 15 9 99 32 109 29
4 -1 14 3 21 9 7 6 20 8 29 4 9 -3 16 -2 16 4 0 5 27 15 60 22 33 7 63 16 66
21 2 4 13 6 24 4 11 -2 20 1 20 6 0 6 6 9 13 6 6 -2 19 -1 28 4 34 18 146 26
194 15 22 -5 85 -28 130 -47 17 -7 32 -13 35 -14 3 0 27 -11 54 -23 27 -12 50
-22 52 -22 2 0 27 -11 56 -24 75 -33 92 -39 101 -38 4 1 7 -2 7 -8 0 -5 6 -10
14 -10 27 0 27 -19 1 -57 -14 -21 -25 -43 -25 -49 0 -7 -3 -14 -7 -16 -5 -2
-18 -22 -31 -45 -19 -36 -21 -43 -8 -43 9 0 16 5 16 12 0 6 3 9 6 5 4 -3 27 9
52 28 25 19 51 35 58 35 7 0 19 9 27 20 8 11 16 17 20 14 3 -3 11 3 18 15 13
20 14 20 71 -12 32 -17 58 -35 58 -39 0 -5 6 -8 14 -8 8 0 21 -6 28 -12 19
-18 76 -58 83 -58 3 0 5 7 5 15 0 8 -3 15 -7 15 -5 0 -13 10 -19 23 -6 12 -25
48 -43 80 -18 33 -29 63 -25 67 5 5 63 32 129 60 65 28 126 56 134 63 12 10
13 9 6 -3 -6 -11 -3 -10 12 2 11 10 26 18 34 18 8 0 19 4 24 8 26 23 160 58
210 55 41 -2 92 -12 145 -28 30 -10 66 -19 79 -22 13 -2 31 -8 40 -12 9 -5 19
-9 24 -10 4 -1 8 -1 10 -2 1 0 9 -2 17 -4 8 -2 26 -7 40 -10 14 -4 32 -7 40
-8 8 -1 17 -4 20 -7 4 -5 57 -21 110 -34 8 -2 35 -10 60 -17 25 -7 48 -13 53
-15 4 -1 10 -3 15 -4 4 -1 11 -2 16 -1 4 1 13 -3 20 -8 6 -5 28 -12 49 -16 20
-4 40 -11 43 -16 3 -5 9 -7 14 -4 4 3 26 -2 49 -10 23 -8 43 -15 46 -15 3 0
10 -2 17 -5 41 -13 105 -29 116 -28 6 0 12 -4 12 -10 0 -8 3 -8 11 0 8 8 -16
37 -91 110 -57 54 -146 140 -198 191 -52 50 -95 92 -96 92 -1 0 -62 59 -135
130 -74 72 -135 130 -137 130 -2 0 -14 11 -28 25 -14 14 -23 25 -22 25 2 0 -8
13 -24 30 -55 59 -92 175 -93 298 -1 23 -4 42 -7 42 -3 0 -6 10 -7 23 0 12 -3
45 -7 72 -3 28 -9 82 -12 122 l-6 72 88 -1 c142 -1 147 0 132 16 -7 8 -15 12
-17 10 -2 -2 -10 1 -18 7 -7 6 -13 8 -13 3 0 -5 -4 -4 -8 1 -4 6 -45 30 -92
54 -47 24 -88 48 -91 54 -4 5 -4 21 0 36 4 14 7 52 6 83 0 32 2 58 5 58 3 0 6
20 7 45 1 25 -2 45 -7 45 -9 0 -80 -112 -80 -126 0 -5 -10 -22 -23 -38 l-23
-28 -31 26 c-17 14 -35 26 -41 26 -6 0 -12 4 -14 8 -1 5 -30 28 -63 53 -33 24
-62 46 -65 49 -19 19 -121 90 -130 90 -6 0 -8 5 -5 10 3 6 2 10 -4 10 -13 0
-71 59 -82 84 -5 12 -13 28 -19 36 -12 18 -32 68 -35 90 -2 8 -12 49 -23 90
-11 41 -18 78 -15 83 2 4 0 7 -5 7 -5 0 -9 6 -9 13 -1 13 -7 43 -23 102 -6 22
-13 51 -16 65 -3 14 -16 64 -28 112 -13 48 -21 89 -18 92 3 4 0 6 -6 6 -6 0
-10 8 -10 18 1 9 -5 37 -12 62 -6 25 -14 52 -15 60 -2 8 -13 53 -25 100 -12
47 -22 93 -22 102 1 10 -4 20 -9 23 -5 4 -7 11 -4 16 4 5 2 9 -4 9 -5 0 -15
-26 -21 -57z m90 -1359 c14 -6 43 -20 65 -30 22 -11 42 -22 43 -27 2 -4 8 -5
13 -1 5 3 9 0 9 -5 0 -6 5 -11 11 -11 6 0 60 -25 121 -55 60 -30 116 -55 124
-55 8 0 14 -4 14 -8 0 -5 6 -9 13 -10 6 0 42 -8 80 -18 60 -16 67 -20 61 -38
-4 -12 -10 -23 -13 -26 -4 -3 -7 -16 -8 -30 -1 -14 -4 -34 -6 -45 -12 -50 -27
-246 -31 -390 -1 -49 -8 -100 -14 -112 -7 -12 -12 -27 -12 -33 0 -14 -62 -82
-68 -75 -3 3 -11 -4 -19 -15 -8 -11 -19 -20 -24 -20 -6 0 -25 -11 -43 -25 -18
-14 -38 -25 -44 -25 -7 0 -12 -4 -12 -9 0 -5 -16 -16 -35 -25 -19 -9 -35 -21
-35 -27 0 -6 -4 -8 -9 -5 -5 3 -14 -1 -21 -9 -7 -8 -17 -15 -22 -15 -5 0 -15
-6 -22 -12 -7 -7 -25 -22 -41 -33 -16 -11 -55 -45 -88 -76 l-59 -55 -55 53
c-29 29 -58 53 -63 53 -6 0 -10 3 -10 8 0 4 -73 54 -162 112 -139 90 -267 190
-244 190 4 0 1 10 -5 22 -6 12 -13 33 -14 47 -8 73 -15 176 -20 255 -6 109
-16 208 -24 234 -1 1 -1 4 -1 7 -1 3 -7 25 -15 50 -13 45 -13 46 11 56 14 5
33 9 43 9 10 0 21 3 25 8 4 4 11 7 14 7 18 2 91 31 128 51 23 13 44 20 48 17
3 -4 6 -2 6 4 0 10 19 19 44 21 5 0 12 4 15 9 3 5 42 26 86 48 44 21 83 43 87
49 4 6 8 8 8 4 0 -4 15 -1 33 7 37 17 101 17 137 -1z"/>
<path d="M1679 1823 c-24 -13 -55 -39 -68 -58 -48 -71 -21 -197 52 -241 34
-19 42 -22 93 -28 44 -5 155 50 137 68 -3 3 -2 6 4 6 17 0 33 49 33 104 0 43
-6 61 -30 94 -25 35 -75 73 -95 72 -3 0 -6 0 -7 1 -25 9 -84 0 -119 -18z"/>
<path d="M1424 1309 c-3 -5 -10 -7 -15 -3 -12 7 -55 -20 -87 -54 -50 -52 -60
-122 -29 -187 21 -42 63 -85 85 -85 6 0 12 -4 12 -9 0 -14 113 -6 140 10 53
31 90 90 95 155 2 25 -1 44 -6 44 -6 0 -7 5 -4 10 3 6 1 10 -5 10 -6 0 -9 4
-6 9 8 12 -73 93 -85 85 -5 -3 -9 0 -9 7 0 7 -2 10 -6 7 -3 -3 -21 -2 -40 2
-19 5 -37 4 -40 -1z"/>
<path d="M1992 1293 c-35 -17 -74 -53 -72 -66 0 -4 -6 -14 -14 -22 -24 -24
-11 -155 16 -155 5 0 6 -4 3 -10 -3 -5 -1 -10 4 -10 6 0 11 -6 11 -13 0 -22
82 -53 134 -52 34 2 59 11 95 36 27 18 47 37 45 41 -3 4 0 8 6 8 6 0 9 4 5 9
-3 5 0 13 6 16 5 4 8 13 5 21 -3 7 -1 16 4 19 5 3 7 15 5 28 -12 61 -17 77
-26 77 -5 0 -9 6 -9 14 0 8 -17 25 -37 37 -21 13 -40 25 -43 28 -12 14 -107
10 -138 -6z"/>
</g>
</svg>
